<?xml version="1.0" ?><svg data-name="Livello 1" id="Livello_1" viewBox="0 0 66 66" xmlns="http://www.w3.org/2000/svg"><defs><style>.cls-1{fill:none;stroke:#fff;stroke-linecap:round;stroke-miterlimit:10;stroke-width:2px;}</style></defs><title/><path d="M1,34A32,32,0,1,0,33,2,32,32,0,0,0,1,34Z"/><g id="Dollars"><line class="cls-1" x1="32.97" x2="32.93" y1="17" y2="19.91"/><line class="cls-1" x1="32.95" x2="32.97" y1="48.04" y2="51"/><path class="cls-1" d="M23.91,41c0,3.89,4,7,9,7h0c5,0,9-3.15,9-7a6.24,6.24,0,0,0-2.31-4.7,8.17,8.17,0,0,0-4-1.79L31,33.72a9.62,9.62,0,0,1-3.25-1,6.75,6.75,0,0,1-3.87-5.78c0-3.89,4-7,9-7,4.1,0,7.56,2.13,8.66,5"/></g></svg>